HIERARCHY
ROOT Pelvis
{
	OFFSET 0.000000 0.000000 0.000000
	CHANNELS 6 Xposition Yposition Zposition Xrotation Yrotation Zrotation
	JOINT LeftUpLeg_virtual
	{
		OFFSET 0.000000 0.000000 0.000000
		CHANNELS 3 Xrotation Yrotation Zrotation
		JOINT LeftUpLeg
		{
			OFFSET 8.479700 -4.795502 -0.379100
			CHANNELS 3 Xrotation Yrotation Zrotation
			JOINT LeftLeg
			{
				OFFSET 0.024144 -32.555107 0.112900
				CHANNELS 3 Xrotation Yrotation Zrotation
				JOINT LeftFoot
				{
					OFFSET -0.024144 -32.638630 -3.012600
					CHANNELS 3 Xrotation Yrotation Zrotation
					JOINT LeftToeBase
					{
						OFFSET 0.970200 -13.225400 11.864200
						CHANNELS 3 Xrotation Yrotation Zrotation
						End Site
						{
							OFFSET 0 0 0
						}
					}
				}
			}
		}
	}
	JOINT RightUpLeg_virtual
	{
		OFFSET 0.000000 0.000000 0.000000
		CHANNELS 3 Xrotation Yrotation Zrotation
		JOINT RightUpLeg
		{
			OFFSET -8.479700 -4.795502 -0.379100
			CHANNELS 3 Xrotation Yrotation Zrotation
			JOINT RightLeg
			{
				OFFSET -0.023144 -32.555092 0.112900
				CHANNELS 3 Xrotation Yrotation Zrotation
				JOINT RightFoot
				{
					OFFSET 0.023144 -32.638641 -3.012700
					CHANNELS 3 Xrotation Yrotation Zrotation
					JOINT RightToeBase
					{
						OFFSET -0.970200 -13.225400 11.864200
						CHANNELS 3 Xrotation Yrotation Zrotation
						End Site
						{
							OFFSET 0 0 0
						}
					}
				}
			}
		}
	}
	JOINT Hips_virtual
	{
		OFFSET 0.000000 0.000000 0.000000
		CHANNELS 3 Xrotation Yrotation Zrotation
		JOINT Hips
		{
			OFFSET -0.000000 -0.000000 -0.000000
			CHANNELS 3 Xrotation Yrotation Zrotation
			JOINT Spine
			{
				OFFSET 0.000000 7.722000 1.166200
				CHANNELS 3 Xrotation Yrotation Zrotation
				JOINT Spine1
				{
					OFFSET 0.000000 12.024101 0.248800
					CHANNELS 3 Xrotation Yrotation Zrotation
					JOINT Spine2
					{
						OFFSET 0.000000 11.502998 -0.491200
						CHANNELS 3 Xrotation Yrotation Zrotation
						JOINT Neck_virtual
						{
							OFFSET 0.000000 0.000000 0.000000
							CHANNELS 3 Xrotation Yrotation Zrotation
							JOINT Neck
							{
								OFFSET 0.000000 18.430702 -3.123100
								CHANNELS 3 Xrotation Yrotation Zrotation
								JOINT Head
								{
									OFFSET 0.000000 9.051102 1.034000
									CHANNELS 3 Xrotation Yrotation Zrotation
									End Site
									{
										OFFSET 0 0 0
									}
								}
							}
						}
						JOINT LeftShoulder_virtual
						{
							OFFSET 0.000000 0.000000 0.000000
							CHANNELS 3 Xrotation Yrotation Zrotation
							JOINT LeftShoulder
							{
								OFFSET 6.197800 13.665199 -4.064700
								CHANNELS 3 Xrotation Yrotation Zrotation
								JOINT LeftArm
								{
									OFFSET 7.778100 -0.187103 -1.709300
									CHANNELS 3 Xrotation Yrotation Zrotation
									JOINT LeftForeArm
									{
										OFFSET 22.049376 0.000000 0.000000
										CHANNELS 3 Xrotation Yrotation Zrotation
										JOINT LeftHand
										{
											OFFSET 23.009392 0.000000 0.000000
											CHANNELS 3 Xrotation Yrotation Zrotation
											End Site
											{
												OFFSET 0 0 0
											}
										}
									}
								}
							}
						}
						JOINT RightShoulder_virtual
						{
							OFFSET 0.000000 0.000000 0.000000
							CHANNELS 3 Xrotation Yrotation Zrotation
							JOINT RightShoulder
							{
								OFFSET -6.197800 13.665199 -4.064700
								CHANNELS 3 Xrotation Yrotation Zrotation
								JOINT RightArm
								{
									OFFSET -7.778100 -0.187103 -1.709300
									CHANNELS 3 Xrotation Yrotation Zrotation
									JOINT RightForeArm
									{
										OFFSET -22.049376 0.000000 0.000000
										CHANNELS 3 Xrotation Yrotation Zrotation
										JOINT RightHand
										{
											OFFSET -23.009392 0.000000 0.000000
											CHANNELS 3 Xrotation Yrotation Zrotation
											End Site
											{
												OFFSET 0 0 0
											}
										}
									}
								}
							}
						}
					}
				}
			}
		}
	}
}
MOTION
Frames: 10
Frame Time: 0.03333333
-1.336817 73.043694 9.813954 0.000000 0.000000 0.000000 3.879640 -66.412921 1.770854 -30.856090 47.824527 39.200105 58.510788 11.488850 -4.451709 -32.676229 5.134850 8.156019 0.000000 0.000000 0.000000 3.879640 -66.412921 1.770854 -16.756153 1.513975 -27.699176 28.802249 2.618235 -0.185061 -16.789829 -1.532751 25.081312 0.000000 0.000000 0.000000 3.879640 -66.412921 1.770854 0.000000 -0.000001 0.000000 7.939717 -7.915822 6.886178 -0.190742 -11.250285 6.028637 0.000000 0.000000 0.000000 -11.447047 -11.562244 5.338306 3.252604 40.080312 6.930933 0.000000 0.000000 0.000000 -11.447047 -11.562244 5.338306 7.036028 -21.717430 28.304183 -17.434025 -22.035032 -5.063775 -0.024463 -18.120273 -4.741183 0.000000 0.000000 0.000000 -11.447047 -11.562244 5.338306 0.930707 -15.187711 4.991300 -54.595215 -4.695021 -21.803098 -1.943037 39.705457 7.057015 0.000000 0.000000 0.000000 
-1.899419 73.335373 10.357203 0.000000 0.000000 0.000000 0.141259 -63.571426 -1.465365 -27.544853 47.670568 37.184035 56.531311 11.540015 -4.011958 -33.045862 4.540672 9.579619 0.000000 0.000000 0.000000 0.141259 -63.571426 -1.465365 -13.126275 1.447940 -27.850356 30.299061 0.221419 0.776031 -19.556493 -2.700277 21.861205 0.000000 0.000000 0.000000 0.141259 -63.571426 -1.465365 0.000000 -0.000001 0.000000 7.657866 -7.906205 6.810721 -0.769985 -11.249929 5.778993 0.000000 0.000000 0.000000 -12.026595 -11.514016 5.093315 5.352068 37.304745 7.154966 0.000000 0.000000 0.000000 -12.026595 -11.514016 5.093315 7.857578 -21.919605 30.974464 -21.326279 -25.568323 -2.826531 -0.025387 -17.497935 -4.137782 0.000000 0.000000 0.000000 -12.026595 -11.514016 5.093315 0.146580 -15.459973 2.713260 -57.506129 -5.072661 -23.534923 -0.738071 40.895167 7.076521 0.000000 0.000000 0.000000 
-2.439793 73.656349 10.993806 0.000000 0.000000 0.000000 -2.805473 -60.494917 -3.603853 -23.903225 47.619024 35.268607 54.397327 10.614891 -3.964161 -32.898402 4.449000 9.855142 0.000000 0.000000 0.000000 -2.805473 -60.494917 -3.603853 -9.240307 1.285788 -28.441007 31.323108 -2.778858 2.592040 -21.053940 -4.124366 18.395740 0.000000 0.000000 0.000000 -2.805473 -60.494917 -3.603853 0.000000 0.000001 0.000000 7.288706 -7.880577 6.623617 -1.527751 -11.209414 5.298616 0.000000 0.000000 0.000000 -12.782772 -11.382077 4.629937 8.338204 34.560382 6.887034 0.000000 0.000000 0.000000 -12.782772 -11.382077 4.629937 8.584869 -21.755787 33.610152 -27.651770 -28.364626 -2.405169 -0.026663 -18.419769 -2.358933 0.000000 0.000000 0.000000 -12.782772 -11.382077 4.629937 -0.667859 -15.637517 0.241171 -60.363559 -5.259260 -25.202681 0.541691 42.083234 7.030239 0.000000 0.000000 0.000000 
-2.929237 73.985626 11.883766 0.000000 0.000000 0.000000 -4.355069 -57.487052 -4.411413 -20.383431 47.562866 33.624980 52.172376 8.732577 -4.224428 -32.242687 4.907897 8.421851 0.000000 0.000000 0.000000 -4.355069 -57.487052 -4.411413 -5.602007 0.889019 -29.415176 31.507185 -6.047963 5.375853 -20.489178 -5.301070 14.302254 0.000000 0.000000 0.000000 -4.355069 -57.487052 -4.411413 0.000000 0.000000 0.000000 6.796633 -7.854326 6.383056 -2.535070 -11.161996 4.689577 0.000000 0.000000 0.000000 -13.787176 -11.218765 4.041870 11.602459 31.881117 6.465382 0.000000 0.000000 0.000000 -13.787176 -11.218765 4.041870 8.478564 -20.502881 36.126264 -34.534748 -32.188421 -4.144996 -0.027684 -17.857393 -0.308369 0.000000 0.000000 0.000000 -13.787176 -11.218765 4.041870 -1.505393 -15.764136 -2.396700 -63.043384 -5.187530 -26.544806 1.665755 43.271844 6.930259 0.000000 0.000000 0.000000 
-3.358039 74.310059 13.046175 0.000000 0.000000 0.000000 -4.939519 -54.862347 -4.620183 -16.732676 47.717064 31.872856 49.323835 7.274554 -4.411877 -31.661455 5.143721 5.790844 0.000000 0.000000 0.000000 -4.939519 -54.862347 -4.620183 -2.407069 0.491954 -29.858527 30.727409 -9.851195 7.814687 -17.220637 -6.144410 9.688389 0.000000 0.000000 0.000000 -4.939519 -54.862347 -4.620183 0.000000 -0.000001 0.000000 6.250538 -7.804426 6.131623 -3.644121 -11.072148 4.108838 0.000000 0.000000 0.000000 -14.890639 -11.019327 3.490229 14.481068 29.410433 6.151369 0.000000 0.000000 0.000000 -14.890639 -11.019327 3.490229 7.074330 -18.434151 38.400539 -38.084660 -35.687984 -5.573880 -0.028801 -17.900193 1.555100 0.000000 0.000000 0.000000 -14.890639 -11.019327 3.490229 -2.360063 -15.858977 -5.167571 -65.467992 -4.894185 -27.307866 2.380873 44.448532 6.818867 0.000000 0.000000 0.000000 
-3.695907 74.566650 14.414351 0.000000 0.000000 0.000000 -4.595705 -52.619747 -4.304777 -12.890256 47.659458 29.573865 45.905876 5.983197 -4.279829 -31.264477 5.185127 2.313123 0.000000 0.000000 0.000000 -4.595705 -52.619747 -4.304777 0.098286 0.592945 -29.889270 29.549174 -14.115096 9.584046 -11.628256 -7.536040 5.696267 0.000000 0.000000 0.000000 -4.595705 -52.619747 -4.304777 0.000000 -0.000001 0.000000 5.655129 -7.708478 5.895820 -4.852883 -10.888856 3.560732 0.000000 0.000000 0.000000 -16.089523 -10.734453 2.989328 16.644922 27.255513 5.869753 0.000000 0.000000 0.000000 -16.089523 -10.734453 2.989328 4.547356 -15.821838 40.479946 -37.948668 -39.544138 -4.999508 -0.029989 -18.282511 3.770947 0.000000 0.000000 0.000000 -16.089523 -10.734453 2.989328 -3.245294 -15.858880 -8.173202 -67.496831 -4.528280 -27.440253 2.615119 45.671122 6.693640 0.000000 0.000000 0.000000 
-3.939014 74.672028 15.908064 0.000000 0.000000 0.000000 -3.658713 -50.796837 -3.770854 -9.028639 47.276633 26.688170 42.113075 4.571481 -3.340559 -31.109934 5.495038 -1.721717 0.000000 0.000000 0.000000 -3.658713 -50.796837 -3.770854 -0.539317 2.278181 -27.957766 32.480353 -18.749247 7.020342 -6.628092 -9.844586 5.141217 0.000000 0.000000 0.000000 -3.658713 -50.796837 -3.770854 0.000000 0.000001 0.000000 5.099015 -7.570000 5.671780 -5.980716 -10.618309 3.055380 0.000000 0.000000 0.000000 -17.203949 -10.372249 2.547708 18.006769 25.299601 5.856892 0.000000 0.000000 0.000000 -17.203949 -10.372249 2.547708 1.383185 -12.755068 42.528675 -34.235954 -43.671898 -1.374632 -0.031313 -19.264661 5.630123 0.000000 0.000000 0.000000 -17.203949 -10.372249 2.547708 -4.174405 -15.821107 -11.641655 -68.947618 -4.309883 -26.975788 2.622779 46.978181 6.455893 0.000000 0.000000 0.000000 
-4.143756 74.525772 17.358149 0.000000 0.000000 0.000000 -3.164477 -49.187778 -3.761555 -5.311416 46.764864 23.893892 38.516557 3.420884 -1.351109 -30.934367 6.345524 -6.701369 0.000000 0.000000 0.000000 -3.164477 -49.187778 -3.761555 -4.082636 4.770149 -23.103777 36.924262 -22.764418 -1.245397 2.964010 -11.535495 6.856997 0.000000 0.000000 0.000000 -3.164477 -49.187778 -3.761555 0.000000 0.000001 0.000000 4.777031 -7.439184 5.399892 -6.626078 -10.369253 2.550212 0.000000 0.000000 0.000000 -17.836240 -10.031142 2.102014 18.533332 23.446779 6.317525 0.000000 0.000000 0.000000 -17.836240 -10.031142 2.102014 -1.571650 -10.025489 45.736080 -26.996751 -45.609630 5.554216 -0.032799 -20.722966 7.301996 0.000000 0.000000 0.000000 -17.836240 -10.031142 2.102014 -5.133810 -15.689334 -15.455999 -69.918638 -4.280975 -26.149741 2.603054 48.377376 6.075902 0.000000 0.000000 0.000000 
-4.419506 74.150299 18.653851 0.000000 0.000000 0.000000 -2.840770 -47.197642 -3.843646 -2.525319 46.258696 22.053129 35.610680 2.401456 0.893432 -30.570137 7.354333 -11.875139 0.000000 0.000000 0.000000 -2.840770 -47.197642 -3.843646 -7.576003 7.175919 -20.546894 43.131606 -22.558163 -3.309640 12.010825 -10.489633 4.191021 0.000000 0.000000 0.000000 -2.840770 -47.197642 -3.843646 0.000000 0.000000 0.000000 4.618229 -7.247476 4.976629 -6.920794 -10.035139 1.940076 0.000000 0.000000 0.000000 -18.113477 -9.586521 1.570268 18.288127 21.803333 6.616426 0.000000 0.000000 0.000000 -18.113477 -9.586521 1.570268 -4.223495 -7.219711 49.579547 -21.201804 -45.448844 11.996622 -0.034765 -23.714480 9.158047 0.000000 0.000000 0.000000 -18.113477 -9.586521 1.570268 -6.110767 -15.442221 -19.377182 -70.708352 -4.296190 -25.087857 2.518701 49.772668 5.625085 0.000000 0.000000 0.000000 
-4.767192 73.647736 19.727694 0.000000 0.000000 0.000000 -2.622227 -44.548700 -3.948649 -1.625763 45.934559 22.354748 34.207797 1.106759 2.194299 -30.365594 7.831690 -15.777083 0.000000 0.000000 0.000000 -2.622227 -44.548700 -3.948649 -11.118032 8.362961 -18.125855 50.053890 -17.642782 -3.138647 18.677151 -6.026528 0.284700 0.000000 0.000000 0.000000 -2.622227 -44.548700 -3.948649 0.000000 -0.000002 0.000000 4.529876 -7.001756 4.388273 -7.057646 -9.612540 1.146137 0.000000 0.000000 0.000000 -18.227137 -9.020018 0.875845 17.445205 20.162416 6.791092 0.000000 0.000000 0.000000 -18.227137 -9.020018 0.875845 -6.516905 -4.521635 53.396701 -20.893407 -44.857964 13.968328 -0.037152 -27.703824 10.795914 0.000000 0.000000 0.000000 -18.227137 -9.020018 0.875845 -7.078762 -15.077532 -23.270507 -71.385162 -4.350432 -23.893846 2.417531 51.159715 5.134690 0.000000 0.000000 0.000000 
